HIERARCHY
ROOT Hips
{
	OFFSET 0.000000 0.000000 0.000000
	CHANNELS 6 Xposition Yposition Zposition Zrotation Yrotation Xrotation 
	JOINT LHipJoint
	{
		OFFSET 0.000000 0.000000 0.000000
		CHANNELS 3 Zrotation Yrotation Xrotation
		JOINT LeftUpLeg
		{
			OFFSET 1.363060 -1.794630 0.839290
			CHANNELS 3 Zrotation Yrotation Xrotation
			JOINT LeftLeg
			{
				OFFSET 2.448110 -6.726130 0.000000
				CHANNELS 3 Zrotation Yrotation Xrotation
				JOINT LeftFoot
				{
					OFFSET 2.562200 -7.039590 0.000000
					CHANNELS 3 Zrotation Yrotation Xrotation
					JOINT LeftToeBase
					{
						OFFSET 0.157640 -0.433110 2.322550
						CHANNELS 3 Zrotation Yrotation Xrotation
						End Site
						{
							OFFSET 0.000000 0.000000 0.000000
						}
					}
				}
			}
		}
	}
	JOINT RHipJoint
	{
		OFFSET 0.000000 0.000000 0.000000
		CHANNELS 3 Zrotation Yrotation Xrotation
		JOINT RightUpLeg
		{
			OFFSET -1.305520 -1.794630 0.839290
			CHANNELS 3 Zrotation Yrotation Xrotation
			JOINT RightLeg
			{
				OFFSET -2.542530 -6.985550 0.000000
				CHANNELS 3 Zrotation Yrotation Xrotation
				JOINT RightFoot
				{
					OFFSET -2.568260 -7.056230 0.000000
					CHANNELS 3 Zrotation Yrotation Xrotation
					JOINT RightToeBase
					{
						OFFSET -0.164730 -0.452590 2.363150
						CHANNELS 3 Zrotation Yrotation Xrotation
						End Site
						{
							OFFSET 0.000000 0.000000 0.000000
						}
					}
				}
			}
		}
	}
}
MOTION
Frames: 14
Frame Time: 0.008333
1.586007 17.052400 0.955421 73.949841 -88.667551 -58.998636 -9.753318 2.153679 2.685507 -9.123898 6.714594 -24.279255 -1.979066 -0.486955 18.095031 2.686289 14.641337 -9.728594 -0.328800 0.000000 -42.429700 10.723615 -1.267863 2.295751 1.339443 -7.253713 -21.826128 1.612489 -0.099944 18.120899 -1.942404 -8.248304 -7.029338 -0.626000 0.000000 -67.093000
1.558088 17.049114 0.981037 31.501882 -87.950883 -16.235280 -9.851040 2.458186 3.365116 -8.504449 4.855809 -25.301365 -1.934789 -0.327159 18.668128 2.717909 14.478921 -9.894315 -0.329400 -0.000001 -42.544800 10.570852 -1.064878 1.999810 2.095426 -8.706591 -21.682401 1.650997 0.129068 17.769058 -1.999774 -8.730096 -6.898259 -0.685900 -0.000000 -67.040000
1.536027 17.048966 0.995564 22.242808 -86.811513 -6.847323 -9.976211 2.505874 3.688167 -8.312033 3.934175 -25.662789 -1.906564 -0.314259 18.744388 2.667315 14.115864 -9.825231 -0.296400 -0.000001 -42.755901 10.430676 -1.099281 1.912948 2.320788 -9.406200 -21.516360 1.657910 0.198102 17.553430 -2.104756 -9.319903 -6.845393 -0.742400 0.000000 -66.979300
1.513211 17.050977 1.010464 16.787446 -85.504196 -1.241986 -10.051074 2.527762 4.009119 -8.097928 2.994749 -26.007070 -1.874056 -0.327355 18.737980 2.603823 13.705998 -9.683851 -0.245800 0.000000 -42.992000 10.337732 -1.170617 1.851006 2.572559 -10.119857 -21.343302 1.672940 0.255576 17.234501 -2.215797 -9.944592 -6.738643 -0.814900 0.000000 -66.925601
1.490139 17.055113 1.025539 13.351712 -84.114152 2.357366 -10.084384 2.547651 4.329491 -7.875026 2.052491 -26.322348 -1.844209 -0.354849 18.631306 2.530898 13.266919 -9.469731 -0.178600 -0.000000 -43.251500 10.284776 -1.253945 1.804246 2.829712 -10.829611 -21.149640 1.688788 0.311807 16.827330 -2.327226 -10.585058 -6.574430 -0.904300 -0.000000 -66.882700
1.467142 17.061273 1.041257 10.974665 -82.679938 4.913320 -10.092480 2.570993 4.650201 -7.639429 1.125530 -26.628287 -1.818957 -0.390382 18.437614 2.448661 12.794993 -9.191404 -0.098700 -0.000000 -43.534300 10.255419 -1.344192 1.774904 3.095496 -11.500497 -20.933581 1.702648 0.372671 16.330820 -2.440160 -11.251615 -6.346986 -1.015700 -0.000000 -66.850900
1.444936 17.069345 1.057201 9.330748 -81.221578 6.738627 -10.079820 2.599811 4.965806 -7.408401 0.212946 -26.894418 -1.799382 -0.432552 18.142577 2.359285 12.307438 -8.846193 -0.007600 -0.000000 -43.835100 10.247389 -1.435005 1.755611 3.341062 -12.135278 -20.681574 1.712099 0.436981 15.761156 -2.550218 -11.923650 -6.060126 -1.148100 0.000000 -66.834800
1.424150 17.079209 1.072789 8.252861 -79.755361 7.985236 -10.047943 2.634441 5.269121 -7.202150 -0.688647 -27.082254 -1.786425 -0.480822 17.732495 2.265188 11.823682 -8.432293 0.093000 -0.000000 -44.141701 10.261735 -1.520505 1.736177 3.533333 -12.749286 -20.378710 1.715539 0.501430 15.140324 -2.651362 -12.571644 -5.720313 -1.297700 0.000000 -66.845600
1.404164 17.090470 1.089911 7.333099 -78.290652 9.091447 -10.012942 2.670572 5.567953 -6.976963 -1.548084 -27.283622 -1.778211 -0.530821 17.268721 2.163270 11.308856 -7.975861 0.195700 0.000000 -44.471800 10.278256 -1.612487 1.741859 3.734571 -13.254944 -20.046411 1.712935 0.574197 14.431736 -2.756756 -13.263225 -5.313201 -1.479600 -0.000001 -66.858100
1.386354 17.103072 1.106611 6.747114 -76.842526 9.840916 -9.964849 2.709481 5.847163 -6.785679 -2.391045 -27.390475 -1.776449 -0.584743 16.701447 2.059595 10.813913 -7.462341 0.302300 0.000000 -44.795800 10.312692 -1.696263 1.742430 3.864834 -13.732220 -19.654022 1.703034 0.644372 13.690541 -2.849504 -13.912623 -4.858520 -1.678300 0.000000 -66.901700
1.370565 17.116745 1.123603 6.336292 -75.420801 10.401440 -9.910820 2.748166 6.107704 -6.612966 -3.204459 -27.434004 -1.780052 -0.640464 16.060048 1.954050 10.330258 -6.907078 0.408701 -0.000000 -45.114700 10.356632 -1.775895 1.744760 3.946270 -14.153337 -19.210276 1.686557 0.713688 12.910114 -2.932891 -14.536246 -4.354101 -1.897500 -0.000000 -66.967100
1.356989 17.131278 1.140734 6.071768 -74.035929 10.798005 -9.852306 2.784734 6.346754 -6.464337 -3.990096 -27.405023 -1.788514 -0.697492 15.349930 1.848810 9.869249 -6.316107 0.513500 0.000001 -45.420900 10.409211 -1.850098 1.743833 3.972407 -14.529855 -18.716310 1.664463 0.779763 12.103579 -3.003859 -15.117411 -3.805300 -2.133201 -0.000000 -67.055200
1.345640 17.146435 1.157999 5.920756 -72.697594 11.064064 -9.791728 2.817306 6.562498 -6.341015 -4.744990 -27.307352 -1.801348 -0.754731 14.586228 1.745236 9.435211 -5.698763 0.614901 0.000000 -45.699200 10.468119 -1.918539 1.735922 3.945581 -14.873685 -18.181784 1.638655 0.840600 11.284880 -3.060002 -15.642226 -3.216093 -2.381700 0.000001 -67.189500
1.336319 17.162095 1.175876 5.822461 -71.413225 11.264619 -9.734619 2.842776 6.753886 -6.229738 -5.461152 -27.151088 -1.816659 -0.811662 13.779603 1.643889 9.027449 -5.062545 0.711799 -0.000000 -45.972200 10.526970 -1.984645 1.723538 3.884541 -15.169113 -17.604142 1.610299 0.897825 10.438828 -3.104268 -16.124626 -2.586624 -2.644500 -0.000001 -67.308000
